


Verenigde Staten
Avontuur / Animatie
90 minuten

geregisseerd door Chris Miller (I)
met de stemmen van Antonio Banderas, Zach Galifianakis en Salma Hayek

Puss in Boots, één van de meest geliefde personages uit het Shrek-universum, gaat over de hilarische en moedige avonturen van Puss (Antonio Banderas) wanneer hij samen met het meesterbrein Humpty Dumpty (Zach Galifianakis) en de straatkat Kitty (Salma Hayek) op zoek gaat naar de befaamde Gans met de Gouden Eieren.


Vertaald door Simply ReleaseS Toppers
Tokke en Suurtje







Screenshots:
 
http://img507.imageshack.us/img507/7954/screenshot1h.jpg
 
http://img97.imageshack.us/img97/559/screenshot2xbb.jpg
 
http://img20.imageshack.us/img20/16/screenshot3yd.jpg
 
http://img88.imageshack.us/img88/8311/screenshot4ng.jpg



INFO;


Video
ID                                       : 0
Format                                   : MPEG-4 Visual
Format profile                           : Advanced Simple@L5
Format settings, BVOP                    : 1
Format settings, QPel                    : No
Format settings, GMC                     : No warppoints
Format settings, Matrix                  : Custom
Codec ID                                 : XVID
Codec ID/Hint                            : XviD
Duration                                 : 1h 20mn
Bit rate                                 : 1 080 Kbps
Width                                    : 720 pixels
Height                                   : 304 pixels
Display aspect ratio                     : 2.35:1
Frame rate                               : 25.000 fps
Color space                              : YUV
Chroma subsampling                       : 4:2:0
Bit depth                                : 8 bits
Scan type                                : Progressive
Compression mode                         : Lossy
Bits/(Pixel*Frame)                       : 0.197
Stream size                              : 624 MiB (89%)
Writing library                          : XviD 64

Audio
ID                                       : 1
Format                                   : MPEG Audio
Format version                           : Version 1
Format profile                           : Layer 3
Mode                                     : Joint stereo
Mode extension                           : MS Stereo
Codec ID                                 : 55
Codec ID/Hint                            : MP3
Duration                                 : 1h 20mn
Bit rate mode                            : Variable
Bit rate                                 : 118 Kbps
Nominal bit rate                         : 128 Kbps
Channel(s)                               : 2 channels
Sampling rate                            : 48.0 KHz
Compression mode                         : Lossy
Stream size                              : 68.2 MiB (10%)
Alignment                                : Aligned on interleaves
Interleave, duration                     : 24 ms (0.60 video frame)
Interleave, preload duration             : 533 ms



 
http://www.imdb.com/title/tt0448694/ 
http://www.moviemeter.nl/film/75021




Deze film wordt u aangeboden door het DutchReleaseTeam.
Voor de reviews van de nieuwste films, muziek, series, games etc
ga dan eens naar http://www.hetmultimediacafe.be

DutchReleaseteam = Hardcoded Dutch Subs